<?xml version="1.0" encoding="UTF-8" standalone="no"?>
<svg
   xmlns:dc="http://purl.org/dc/elements/1.1/"
   xmlns:cc="http://creativecommons.org/ns#"
   xmlns:rdf="http://www.w3.org/1999/02/22-rdf-syntax-ns#"
   xmlns:svg="http://www.w3.org/2000/svg"
   xmlns="http://www.w3.org/2000/svg"
   xmlns:sodipodi="http://sodipodi.sourceforge.net/DTD/sodipodi-0.dtd"
   xmlns:inkscape="http://www.inkscape.org/namespaces/inkscape"
   viewBox="0 -256 1850 1850"
   version="1.1"
   id="svg6"
   sodipodi:docname="heart.svg"
   inkscape:version="0.92.2 2405546, 2018-03-11">
  <metadata
     id="metadata12">
    <rdf:RDF>
      <cc:Work
         rdf:about="">
        <dc:format>image/svg+xml</dc:format>
        <dc:type
           rdf:resource="http://purl.org/dc/dcmitype/StillImage" />
      </cc:Work>
    </rdf:RDF>
  </metadata>
  <defs
     id="defs10" />
  <sodipodi:namedview
     pagecolor="#ffffff"
     bordercolor="#666666"
     borderopacity="1"
     objecttolerance="10"
     gridtolerance="10"
     guidetolerance="10"
     inkscape:pageopacity="0"
     inkscape:pageshadow="2"
     inkscape:window-width="1914"
     inkscape:window-height="1020"
     id="namedview8"
     showgrid="false"
     inkscape:zoom="0.36081557"
     inkscape:cx="679.58095"
     inkscape:cy="943.90618"
     inkscape:window-x="0"
     inkscape:window-y="18"
     inkscape:window-maximized="0"
     inkscape:current-layer="svg6" />
  <g
     transform="matrix(1,0,0,-1,37.966102,1343.4237)"
     id="g4">
    <path
       d="m 896,-128 q -26,0 -44,18 L 228,492 q -10,8 -27.5,26 Q 183,536 145,583.5 107,631 77,681 47,731 23.5,802 0,873 0,940 q 0,220 127,344 127,124 351,124 62,0 126.5,-21.5 64.5,-21.5 120,-58 55.5,-36.5 95.5,-68.5 40,-32 76,-68 36,36 76,68 40,32 95.5,68.5 55.5,36.5 120,58 64.5,21.5 126.5,21.5 224,0 351,-124 127,-124 127,-344 0,-221 -229,-450 L 940,-110 q -18,-18 -44,-18"
       id="path2" />
  </g>
  <path
     style="fill:#ffffff;stroke-width:3.82335925;stroke-miterlimit:4;stroke-dasharray:none"
     d="M 909.56246,1720.7732 C 901.88092,1717.1666 793.53867,1614.6174 578.36833,1407.2882 402.49038,1237.8194 249.61948,1089.8763 238.65521,1078.5257 211.53022,1050.4447 163.40789,989.66181 137.23255,950.41951 90.319174,880.08652 57.010159,797.66222 43.495253,718.46334 38.671109,690.1933 39.483767,611.01944 44.99994,571.86792 63.625928,439.66832 122.70885,338.64951 219.65845,273.24024 c 83.05494,-56.03491 188.63748,-83.31628 306.30623,-79.14619 62.32365,2.2087 111.07825,14.24483 171.1922,42.26252 60.48902,28.19249 138.37108,82.87612 209.89987,147.3778 l 27.65072,24.93426 27.77926,-25.96108 c 54.66967,-51.09147 145.53947,-115.85638 199.30657,-142.05012 32.1308,-15.65313 82.6939,-33.38137 115.3228,-40.43399 28.9557,-6.25867 102.2049,-8.47563 142.8844,-4.32455 116.9229,11.93126 207.0042,50.05356 277.4806,117.42946 62.0389,59.30954 101.6957,133.75453 119.8509,224.98755 13.0678,65.66837 14.2742,148.21259 2.9808,203.95988 -21.148,104.39314 -75.8319,204.86682 -169.6894,311.77982 -31.2189,35.5613 -670.92965,654.3669 -687.00274,664.552 -12.28705,7.786 -39.7451,8.886 -54.0582,2.1656 z"
     id="path4522"
     inkscape:connector-curvature="0"
     transform="translate(0,-256)" />
  <path
     style="fill:#ffffff;stroke-width:3.82335925;stroke-miterlimit:4;stroke-dasharray:none"
     d="m 914.04977,1721.1254 c -5.83839,-2.2031 -17.36186,-12.5896 -92.80944,-83.6523 C 724.89532,1546.7274 339.42539,1175.5106 256.90165,1094.0015 193.26548,1031.1476 132.50862,948.10723 97.805343,876.55402 50.234293,778.46931 35.250515,703.3526 43.452824,604.07384 48.879896,538.38585 66.190426,472.47254 90.944832,423.23846 153.73405,298.3569 270.12839,220.80425 425.88802,200.06839 c 38.48575,-5.1235 116.3072,-5.12416 150.03887,-0.001 100.5423,15.26953 207.87986,75.3518 329.54223,184.46149 15.27828,13.70193 28.45296,24.91259 29.27707,24.91259 0.8241,0 12.35786,-10.0855 25.63054,-22.41222 58.55207,-54.37893 142.55837,-114.83054 199.00847,-143.20804 27.599,-13.87404 84.2862,-34.46689 113.5737,-41.25813 18.5273,-4.29614 33.7895,-5.13873 92.8452,-5.12573 62.621,0.0138 74.3046,0.74185 102.5455,6.39006 98.7632,19.75282 166.7876,52.91944 228.022,111.17655 70.4195,66.9958 111.4479,153.14734 125.4496,263.41986 6.3281,49.83781 4.4173,130.37794 -4.021,169.4826 -14.0839,65.2678 -45.9819,137.14682 -90.2472,203.36312 -50.6486,75.76506 -63.9466,90.03886 -278.6039,299.04746 -282.0105,274.5896 -469.66534,454.3238 -485.69364,465.1934 -9.36334,6.3498 -14.05981,7.5851 -28.14363,7.4028 -9.29766,-0.1203 -18.77558,-0.9247 -21.06206,-1.7875 z"
     id="path4524"
     inkscape:connector-curvature="0"
     transform="translate(0,-256)" />
</svg>
